<svg version="1" xmlns="http://www.w3.org/2000/svg" width="682.667" height="682.667" viewBox="0 0 512.000000 512.000000"><path d="M0 256v256h512V0H0v256zM391.2 95.9c18.9 4.9 34.1 17.6 42.3 35.3 4.2 9.2 5.7 16.7 5.6 27.7-.1 17.3-6 31.1-18.5 43.7-9.4 9.4-20.3 15.4-32.6 18-14.1 3-31.2.2-44.5-7.2-7.1-4-18.4-15.2-22.8-22.5-11.2-19-12.1-42.3-2.2-61.8 6.2-12.3 16.3-22.4 28.8-28.8 12.3-6.2 29.9-8 43.9-4.4zM144.5 215.6c33.3 8.6 54 43.6 45.5 76.8-3.2 12.8-7.4 20-17 29.6-5.3 5.4-10.7 9.8-14.5 11.7-18.7 9.8-42.3 9.8-61 0-8.6-4.5-22.1-18.3-26.3-26.9-12.4-25.5-8.3-53.9 10.8-73.8 16.1-16.8 39.8-23.4 62.5-17.4zm169.3 84.9c28.4 6.7 48.6 32.5 48.6 62-.1 18.5-5.6 31.8-18.9 45-13.2 13.3-26.5 18.8-45 18.9-25 0-46.1-13.3-57.5-36.2-4.1-8.3-6-17-6-27.7 0-29.3 19.3-54.2 48-61.9 7.2-1.9 22.8-2 30.8-.1z"/></svg>